<?xml version="1.0" encoding="UTF-8" standalone="no"?> <!-- Created with Keyshape --> <svg xmlns="http://www.w3.org/2000/svg" id="a6dc9487-50e2-4fb9-af91-bf1b7118d463" data-name="Layer 1" width="1103.79" height="707.8" viewBox="0 0 1103.79 707.8"><defs><linearGradient id="Gradient-0" x1="891.82" y1="790.72" x2="891.82" y2="522.9" gradientUnits="userSpaceOnUse"><stop offset="0" stop-color="#808080" stop-opacity="0.25"></stop><stop offset="0.54" stop-color="#808080" stop-opacity="0.12"></stop><stop offset="1" stop-color="#808080" stop-opacity="0.1"></stop></linearGradient></defs><style> @keyframes a0_do { 0% { stroke-dashoffset: 0px; } 100% { stroke-dashoffset: -50px; } } @keyframes a1_do { 0% { stroke-dashoffset: 0px; } 100% { stroke-dashoffset: -50px; } } @keyframes a2_do { 0% { stroke-dashoffset: 0px; } 100% { stroke-dashoffset: -50px; } } @keyframes a3_t { 0% { transform: translate(178.336988px,592.947853px) rotate(0deg) translate(-226.436988px,-689.047853px); animation-timing-function: cubic-bezier(0.42,0,0.58,1); } 50% { transform: translate(178.336988px,592.947853px) rotate(-15deg) translate(-226.436988px,-689.047853px); animation-timing-function: cubic-bezier(0.42,0,0.58,1); } 100% { transform: translate(178.336988px,592.947853px) rotate(0deg) translate(-226.436988px,-689.047853px); } } @keyframes a4_t { 0% { transform: translate(180.072425px,592.738399px) rotate(0deg) translate(-228.172425px,-688.838399px); animation-timing-function: cubic-bezier(0.42,0,0.58,1); } 50% { transform: translate(180.072425px,592.738399px) rotate(20deg) translate(-228.172425px,-688.838399px); animation-timing-function: cubic-bezier(0.42,0,0.58,1); } 100% { transform: translate(180.072425px,592.738399px) rotate(0deg) translate(-228.172425px,-688.838399px); } } @keyframes a5_t { 0% { transform: translate(177.884356px,592.947853px) rotate(0deg) translate(-225.984356px,-689.047853px); animation-timing-function: cubic-bezier(0.42,0,0.58,1); } 50% { transform: translate(177.884356px,592.947853px) rotate(-10deg) translate(-225.984356px,-689.047853px); animation-timing-function: cubic-bezier(0.42,0,0.58,1); } 100% { transform: translate(177.884356px,592.947853px) rotate(0deg) translate(-225.984356px,-689.047853px); } } @keyframes a6_t { 0% { transform: translate(180.072425px,593.676276px) rotate(0deg) translate(-228.172425px,-689.776276px); animation-timing-function: cubic-bezier(0.42,0,0.58,1); } 50% { transform: translate(180.072425px,593.676276px) rotate(10deg) translate(-228.172425px,-689.776276px); animation-timing-function: cubic-bezier(0.42,0,0.58,1); } 100% { transform: translate(180.072425px,593.676276px) rotate(0deg) translate(-228.172425px,-689.776276px); } } @keyframes a7_t { 0% { transform: translate(869.08355px,494.662851px) rotate(0deg) translate(-57.57645px,-65.217751px); } 16.6666% { transform: translate(869.08355px,494.662851px) rotate(0deg) translate(-57.57645px,-65.217751px); animation-timing-function: cubic-bezier(0.42,0,0.58,1); } 33.3333% { transform: translate(869.08355px,494.662851px) rotate(10deg) translate(-57.57645px,-65.217751px); } 66.6666% { transform: translate(869.08355px,494.662851px) rotate(10deg) translate(-57.57645px,-65.217751px); animation-timing-function: cubic-bezier(0.42,0,0.58,1); } 83.3333% { transform: translate(869.08355px,494.662851px) rotate(0deg) translate(-57.57645px,-65.217751px); } 100% { transform: translate(869.08355px,494.662851px) rotate(0deg) translate(-57.57645px,-65.217751px); } } @keyframes a8_t { 0% { transform: translate(912.56686px,545.031341px) rotate(0deg) translate(-199.775341px,-25.595506px); animation-timing-function: cubic-bezier(0.42,0,0.58,1); } 33.3333% { transform: translate(912.56686px,545.031341px) rotate(10deg) translate(-199.775341px,-25.595506px); } 66.6666% { transform: translate(912.56686px,545.031341px) rotate(10deg) translate(-199.775341px,-25.595506px); animation-timing-function: cubic-bezier(0.42,0,0.58,1); } 100% { transform: translate(912.56686px,545.031341px) rotate(0deg) translate(-199.775341px,-25.595506px); } } @keyframes a9_do { 0% { stroke-dashoffset: 0px; } 100% { stroke-dashoffset: 50px; } } @keyframes a10_do { 0% { stroke-dashoffset: 0px; } 100% { stroke-dashoffset: 50px; } } </style><title>mind map</title><ellipse rx="192" ry="43" fill="#40c2c6" opacity="0.1" transform="translate(0,0) translate(843.39,664.8)"></ellipse><g opacity="0.1"><path d="M673.12,122.89C673.12,278.99,771.05,405.3,892.12,405.3" fill="#40c2c6" transform="translate(-48.1,-96.1)"></path></g><path d="M675.52,226.13C604.77,226.67,536.79,210.68,471.79,192.86C406.79,175.04,342.32,155,273,146.82C228.38,141.55,177.6,142.38,142.53,162.82C108.78,182.48,98.79,214.71,93.86,244.45C90.15,266.83,88.34,290.31,101.4,310.67C110.42,324.8,126,336.4,137,349.86C175.26,396.69,151.53,456.96,113.59,505.37C95.8,528.08,74.99,549.87,61.49,573.85C47.99,597.83,42.31,624.95,55.7,648.45C68.98,671.73,99.24,688.45,131.79,699.9C197.92,723,275,727.6,350.05,729.06C516.19,732.31,682.76,722.43,848.88,712.56C910.35,708.9,972.1,705.22,1032.36,695.41C1065.82,689.96,1100.28,681.97,1124.1,664.8C1154.35,643,1160.78,607.69,1139.1,582.47C1102.73,540.18,1006.1,532.79,980.1,486.94C965.79,461.7,978.53,432.57,997.1,408.02C1037.04,355.38,1105.45,308.02,1107.1,249.4C1108.2,209.15,1073.1,170.12,1020.42,152.97C965.17,134.97,889.63,140.18,850.57,174.58C810.34,210,738,225.66,675.52,226.13Z" fill="#40c2c6" opacity="0.1" transform="translate(-48.1,-96.1)"></path><path d="M995,127.29L995,645.7C995,661.12,980.12,673.7,961.76,673.7L258.34,673.7C239.98,673.7,225.11,661.16,225.11,645.7L225.11,127.29C225.11,111.84,239.98,96.1,258.34,96.1L961.67,97.81C980,97.81,995,111.84,995,127.29Z" fill="#fff" transform="translate(-48.1,-96.1)"></path><path d="M995,127.45L995,151.45L225.11,151.45L225.11,127.45C225.11,123.334,225.921,119.258,227.495,115.455C229.07,111.652,231.379,108.197,234.289,105.286C237.199,102.375,240.654,100.065,244.456,98.4892C248.258,96.9132,252.334,96.1013,256.45,96.1L963.6,96.1C967.721,96.0947,971.802,96.9017,975.611,98.4747C979.42,100.048,982.881,102.356,985.797,105.267C988.713,108.179,991.027,111.637,992.606,115.443C994.185,119.249,994.999,123.329,995,127.45Z" fill="#3f3d56" transform="translate(-48.1,-96.1)"></path><ellipse fill="#fa5959" opacity="0.8" rx="11.08" ry="11.08" transform="translate(0,0) translate(214.3,27.67)"></ellipse><ellipse fill="#fed253" opacity="0.8" rx="11.08" ry="11.08" transform="translate(0,0) translate(246.53,27.67)"></ellipse><ellipse fill="#8ccf4d" opacity="0.8" rx="11.08" ry="11.08" transform="translate(0,0) translate(278.76,27.67)"></ellipse><rect width="70.01" height="33.22" rx="8.57" fill="#40c2c6" opacity="0.2" transform="translate(0,0) translate(457,170.7)"></rect><rect width="70.01" height="33.22" rx="8.57" fill="#40c2c6" opacity="0.2" transform="translate(0,0) translate(598.84,170.7)"></rect><path d="M0,0L-119.616,0" stroke="#3f3d56" fill="none" stroke-miterlimit="10" stroke-dasharray="5" stroke-dashoffset="0" transform="translate(541.337,317.566)" style="animation: 3s linear infinite both a0_do;"></path><rect width="107.03" height="50.79" rx="8.57" opacity="0.1" transform="translate(0,0) translate(508.37,291.75)"></rect><rect width="102.68" height="48.73" rx="8.57" fill="#40c2c6" transform="translate(0,0) translate(510.55,292.79)"></rect><path fill="none" stroke="#3f3d56" stroke-miterlimit="10" d="M492.29,170.7L491.38,138.35"></path><path fill="none" stroke="#3f3d56" stroke-miterlimit="10" d="M675.22,139.93L634.08,170.7L590.81,139.93"></path><rect width="70.01" height="33.22" rx="8.57" fill="#40c2c6" opacity="0.2" transform="translate(0,0) translate(456.61,106.7)"></rect><rect width="70.01" height="33.22" rx="8.57" fill="#40c2c6" opacity="0.2" transform="translate(0,0) translate(640.21,106.7)"></rect><rect width="70.01" height="33.22" rx="8.57" fill="#40c2c6" opacity="0.2" transform="translate(0,0) translate(555.81,106.7)"></rect><path fill="none" stroke="#3f3d56" stroke-miterlimit="10" d="M561.89,341.51L561.62,430.01" stroke-dasharray="5" stroke-dashoffset="0" style="animation: 3s linear infinite both a1_do;"></path><path d="M609.53,558.59L609.53,558.59Z" fill="none" stroke="#3f3d56" stroke-miterlimit="10" transform="translate(-48.1,-96.1)"></path><path fill="none" stroke="#3f3d56" stroke-miterlimit="10" d="M462.42,493.11L561.42,462.48L660.82,492.89"></path><rect width="70.01" height="33.22" rx="8.57" fill="#40c2c6" opacity="0.2" transform="translate(0,0) translate(526.62,430.01)"></rect><rect width="70.01" height="33.22" rx="8.57" fill="#40c2c6" opacity="0.2" transform="translate(1210.51,-631.25) rotate(90) translate(861.88,345.12)"></rect><rect width="70.01" height="33.22" rx="8.57" fill="#40c2c6" opacity="0.2" transform="translate(377.41,1272.15) rotate(-90) translate(861.88,454.76)"></rect><rect width="70.01" height="33.22" rx="8.57" fill="#40c2c6" opacity="0.2" transform="translate(0,0) translate(625.82,492.66)"></rect><rect width="70.01" height="33.22" rx="8.57" fill="#40c2c6" opacity="0.2" transform="translate(972.95,1114.65) rotate(-180) translate(475.52,588.76)"></rect><rect width="70.01" height="33.22" rx="8.57" fill="#40c2c6" opacity="0.2" transform="translate(1174.83,1114.65) rotate(-180) translate(576.46,588.76)"></rect><path fill="none" stroke="#3f3d56" stroke-miterlimit="10" d="M801,320.45L832.16,374.94"></path><path fill="none" stroke="#3f3d56" stroke-miterlimit="10" d="M735.11,319.78L767.82,319.78"></path><path fill="none" stroke="#3f3d56" stroke-miterlimit="10" d="M613.23,317.15L702.51,319.78" stroke-dasharray="5" stroke-dashoffset="0" style="animation: 3s linear infinite both a2_do;"></path><path fill="none" stroke="#3f3d56" stroke-miterlimit="10" d="M832.16,265.63L801.15,320.21"></path><rect width="70.01" height="33.22" rx="8.57" fill="#40c2c6" opacity="0.2" transform="translate(1134.8,-447.65) rotate(90) translate(732.22,399.07)"></rect><rect width="70.01" height="33.22" rx="8.57" fill="#40c2c6" opacity="0.2" transform="translate(1200.94,-512.04) rotate(90) translate(797.48,399.94)"></rect><rect width="70.01" height="33.22" rx="8.57" fill="#40c2c6" opacity="0.2" transform="translate(636.73,-57.48) rotate(90) translate(288.1,345.12)"></rect><rect width="70.01" height="33.22" rx="8.57" fill="#40c2c6" opacity="0.2" transform="translate(-196.37,698.37) rotate(-90) translate(288.1,454.76)"></rect><path fill="none" stroke="#3f3d56" stroke-miterlimit="10" d="M322.78,320.45L291.61,374.94"></path><path fill="none" stroke="#3f3d56" stroke-miterlimit="10" d="M291.61,265.63L322.62,320.21"></path><rect width="70.01" height="33.22" rx="8.57" fill="#40c2c6" opacity="0.2" transform="translate(820.34,-133.18) rotate(90) translate(417.76,399.07)"></rect><rect width="70.01" height="33.22" rx="8.57" fill="#40c2c6" opacity="0.2" transform="translate(755.94,-67.05) rotate(90) translate(352.49,399.94)"></rect><path d="M-87.9664,0L-119.616,0" stroke="#3f3d56" fill="none" stroke-miterlimit="10" transform="translate(476.138,317.566)"></path><path d="M156.12,598C156.12,648.24,187.64,688.9,226.59,688.9" fill="#46455b" transform="translate(178.337,592.948) translate(-226.437,-689.048)" style="animation: 3s linear infinite both a3_t;"></path><path d="M226.59,688.89C226.59,638.08,261.77,596.97,305.24,596.97" fill="#40c2c6" transform="translate(180.072,592.738) translate(-228.172,-688.838)" style="animation: 3s linear infinite both a4_t;"></path><path d="M181.66,602.55C181.66,650.27,201.76,688.89,226.59,688.89" fill="#40c2c6" transform="translate(177.884,592.948) translate(-225.984,-689.048)" style="animation: 3s linear infinite both a5_t;"></path><path d="M226.59,688.89C226.59,623.97,267.25,571.44,317.49,571.44" fill="#46455b" transform="translate(180.072,593.676) translate(-228.172,-689.776)" style="animation: 3s linear infinite both a6_t;"></path><ellipse rx="17.52" ry="2.96" fill="#40c2c6" opacity="0.1" transform="translate(0,0) translate(175.43,607.19)"></ellipse><path d="M211.77,689.53C211.77,689.53,221.77,689.22,224.77,687.08C227.77,684.94,240.14,682.37,240.89,685.81C241.64,689.25,255.89,702.92,244.62,703.01C233.35,703.1,218.4,701.25,215.4,699.42C212.4,697.59,211.77,689.53,211.77,689.53Z" fill="#a8a8a8" transform="translate(-48.1,-96.1)"></path><path d="M244.83,701.81C233.55,701.9,218.62,700.06,215.61,698.22C213.32,696.83,212.41,691.83,212.1,689.52L211.77,689.52C211.77,689.52,212.4,697.58,215.41,699.41C218.42,701.24,233.35,703.09,244.63,703C247.89,703,249.01,701.81,248.95,700.1C248.5,701.15,247.26,701.79,244.83,701.81Z" opacity="0.2" transform="translate(-48.1,-96.1)"></path><path d="M1004.32,744.89L976.65,704.77C976.65,704.77,976.13,694.84,974.32,692.51C972.51,690.18,973.93,685.03,973.93,685.03C973.93,685.03,975.87,682.19,974.19,681.94C972.51,681.69,973.93,675.36,973.93,675.36L973.8,665.29C973.8,665.29,975.35,655.62,974.06,653.29C973.873,652.977,973.731,652.64,973.639,652.287C973.548,651.934,973.507,651.57,973.518,651.206C973.53,650.842,973.593,650.481,973.707,650.135C973.821,649.788,973.983,649.46,974.19,649.16C974.19,649.16,975.74,643.61,974.19,642.16C972.64,640.71,973.02,632.1,973.41,625.27C973.8,618.44,970.7,614.56,970.7,613.53C970.7,612.5,960.48,602.43,960.48,601.53C960.48,600.63,954.02,596.89,950.14,595.85C946.26,594.81,944.32,594.05,944.45,593.53C944.58,593.01,938.37,590.95,938.37,590.95C938.37,590.95,932.94,590.57,930.87,587.86C928.8,585.15,884.577,595.357,888.11,596.4C888.11,596.66,888.11,596.93,888.11,597.18C888.11,597.95,888.05,598.69,887.97,599.4L887.97,599.4C887.97,599.4,874.97,596.73,871.48,598.53C867.99,600.33,861.13,601.76,860.1,602.79C859.07,603.82,856.48,603.05,854.15,609.11C851.82,615.17,851.57,621.37,848.59,624.2C845.61,627.03,844.07,628.98,843.94,631.04C843.81,633.1,844.32,633.62,843.16,634.27C842,634.92,840.32,637.62,840.83,638.65C840.83,638.65,841.48,641.23,839.41,642.52C839.105,642.735,838.83,642.989,838.59,643.275C838.351,643.561,838.15,643.877,837.992,644.215C837.834,644.553,837.72,644.91,837.654,645.277C837.588,645.644,837.57,646.018,837.6,646.39C837.6,646.39,836.82,649.23,835.01,649.87C833.2,650.51,832.01,654.78,832.01,654.78L826.15,661.52L814.52,648.66C814.089,648.184,813.568,647.798,812.988,647.523C812.407,647.248,811.779,647.09,811.137,647.057C810.496,647.025,809.854,647.118,809.249,647.333C808.644,647.548,808.087,647.88,807.61,648.31L802,653.51C801.453,653.642,800.917,653.815,800.396,654.027C799.875,654.24,799.371,654.491,798.888,654.778C798.405,655.066,797.944,655.39,797.509,655.747C797.074,656.103,796.667,656.492,796.29,656.91C795.977,657.228,795.679,657.56,795.395,657.905C795.112,658.25,794.845,658.607,794.593,658.976C794.342,659.344,794.107,659.724,793.889,660.114C793.672,660.503,793.472,660.903,793.29,661.31L790.17,664.13C789.927,664.346,789.706,664.587,789.511,664.848C789.316,665.109,789.148,665.389,789.01,665.684C788.872,665.979,788.765,666.287,788.689,666.604C788.613,666.921,788.57,667.244,788.56,667.57C788.358,668.001,788.222,668.46,788.154,668.932C788.086,669.403,788.088,669.882,788.159,670.353C788.231,670.823,788.372,671.281,788.577,671.711C788.782,672.141,789.049,672.538,789.37,672.89L796.81,681.13L796.81,681.2C796.154,681.254,795.503,681.359,794.863,681.512C794.223,681.665,793.595,681.866,792.986,682.114C792.376,682.362,791.786,682.656,791.221,682.994C790.656,683.331,790.118,683.711,789.61,684.13C778.49,693.93,778.36,702.96,780.04,707.13C781.72,711.3,795.81,727.13,795.81,727.13C795.81,727.13,804,737.78,815.81,743.44L815.81,743.44L815.73,743.53C815.49,743.78,815.26,744.05,815.03,744.34L814.84,744.59L814.66,744.84L814.45,745.15L814.29,745.4L814.06,745.77C814.05,745.792,814.039,745.813,814.028,745.834C814.017,745.856,814.006,745.877,813.994,745.898C813.983,745.918,813.971,745.939,813.958,745.959C813.946,745.98,813.933,746,813.92,746.02C813.83,746.18,813.74,746.35,813.66,746.52L813.57,746.69C813.46,746.91,813.36,747.15,813.25,747.39C813.14,747.63,813.18,747.57,813.15,747.65C813.12,747.73,813.01,747.99,812.95,748.17L812.83,748.5C812.77,748.66,812.72,748.83,812.66,749C812.6,749.17,812.59,749.24,812.55,749.37L812.4,749.93L812.31,750.28C812.23,750.58,812.17,750.89,812.1,751.21L812.04,751.58C812.04,751.79,811.96,752.01,811.93,752.24C811.9,752.47,811.88,752.55,811.86,752.71C811.84,752.87,811.86,753.13,811.78,753.35C811.7,753.57,811.78,753.68,811.73,753.84C811.68,754,811.73,754.33,811.73,754.58C811.73,754.83,811.73,754.87,811.73,755.03C811.73,755.43,811.73,755.85,811.68,756.28C811.42,771.37,812.3,773.56,812.3,773.56C812.3,773.56,814.13,778.37,819.17,778.71C819.354,778.723,819.539,778.73,819.724,778.732C819.909,778.733,820.094,778.729,820.279,778.719C820.463,778.709,820.648,778.693,820.831,778.671C821.015,778.65,821.198,778.623,821.38,778.59C828.1,777.43,843.88,774.72,849.44,775.76C852.78,776.38,858.97,775.46,863.37,774.63L864.54,774.4L865.34,776.97L867.9,776.27L870.07,777.52L871.44,778.31C873.99,786.96,884.35,784.01,884.35,784.01L886.81,785.43L911.81,786.07C912.51,786.495,913.22,786.902,913.94,787.292C914.66,787.683,915.389,788.055,916.127,788.41C916.864,788.765,917.611,789.102,918.365,789.42C919.119,789.738,919.881,790.039,920.65,790.32C920.752,790.35,920.855,790.378,920.959,790.404C921.062,790.431,921.166,790.455,921.27,790.478C921.374,790.5,921.479,790.521,921.584,790.539C921.689,790.558,921.794,790.575,921.9,790.59C922.478,790.636,923.056,790.673,923.635,790.701C924.214,790.73,924.794,790.749,925.373,790.76C925.953,790.771,926.532,790.773,927.112,790.766C927.691,790.76,928.271,790.744,928.85,790.72C930.77,790.72,932.25,790.59,932.25,790.59C932.25,790.59,931.99,783.82,931.63,776.23C941.16,775.83,949.63,775.23,954.74,774.34C968,772,973.55,759.84,975.6,753.36C975.753,754.018,975.894,754.679,976.025,755.343C976.156,756.006,976.275,756.671,976.384,757.338C976.492,758.005,976.589,758.674,976.676,759.345C976.762,760.015,976.836,760.687,976.9,761.36C977.036,761.953,977.181,762.545,977.335,763.133C977.49,763.722,977.653,764.309,977.826,764.892C977.999,765.476,978.18,766.057,978.371,766.635C978.562,767.213,978.761,767.788,978.97,768.36C979.153,768.817,979.349,769.269,979.56,769.714C979.771,770.159,979.996,770.598,980.234,771.029C980.472,771.46,980.723,771.884,980.988,772.299C981.253,772.715,981.53,773.122,981.82,773.52C991.65,770.17,985.7,765.14,983.63,762.95C981.56,760.76,985.05,758.95,985.05,758.95C985.05,758.95,987.77,757.14,987.51,755.46C987.25,753.78,987.12,751.98,995.91,752.11C1004.7,752.24,1004.32,744.89,1004.32,744.89ZM867.78,662.52C867.89,663.26,869.12,671.2,870.23,673.29C870.307,673.638,870.37,673.989,870.421,674.341C870.472,674.694,870.509,675.049,870.533,675.404C870.558,675.76,870.569,676.116,870.566,676.472C870.564,676.829,870.549,677.185,870.52,677.54C865.31,677.13,859.88,676.9,859.88,676.9C859.919,676.947,859.955,676.997,859.987,677.05C860.019,677.103,860.046,677.157,860.07,677.214C860.094,677.271,860.113,677.329,860.128,677.389C860.143,677.448,860.154,677.509,860.16,677.57L859.34,677.38C858.96,677.29,858.56,677.2,858.15,677.09L867.75,662.5ZM848.78,692.77L857.78,694.2L858.54,694.32C858.476,694.672,858.418,695.024,858.366,695.378C858.314,695.732,858.269,696.086,858.23,696.442C858.19,696.797,858.157,697.153,858.131,697.509C858.104,697.866,858.084,698.223,858.07,698.58C858.07,698.71,858.27,698.87,858.56,699.06C858.53,699.236,858.503,699.412,858.481,699.589C858.459,699.766,858.44,699.943,858.426,700.121C858.412,700.299,858.402,700.477,858.396,700.655C858.39,700.833,858.388,701.012,858.39,701.19C858.53,701.91,862.75,703.45,867.59,704.73C867.52,704.99,867.45,705.23,867.39,705.47L867.39,705.47C863.12,703.22,856.39,702.17,855.61,700.47C854.83,698.77,832,690.84,832,690.84C832,690.84,831.16,690.39,829.72,689.7L835.72,690.84L837.38,690.67C838.316,690.906,839.255,691.127,840.198,691.332C841.141,691.538,842.087,691.728,843.036,691.903C843.985,692.078,844.937,692.238,845.891,692.383C846.845,692.527,847.802,692.656,848.76,692.77Z" fill="url(#Gradient-0)" transform="translate(-48.1,-96.1)"></path><path d="M974.89,750.5C974.89,750.5,971.3,772.15,953.1,775.36C934.9,778.57,874.16,777.92,874.16,777.92C874.16,777.92,839.43,772.92,826.87,743.58C814.31,714.24,806.24,702.58,817,702.05C827.76,701.52,885.82,721.66,889.15,721.92C892.48,722.18,978.09,677.32,974.89,750.5Z" fill="#65617d" transform="translate(-48.1,-96.1)"></path><path d="M974.89,750.5C974.89,750.5,971.3,772.15,953.1,775.36C934.9,778.57,874.16,777.92,874.16,777.92C874.16,777.92,839.43,772.92,826.87,743.58C814.31,714.24,806.24,702.58,817,702.05C827.76,701.52,885.82,721.66,889.15,721.92C892.48,722.18,978.09,677.32,974.89,750.5Z" opacity="0.05" transform="translate(-48.1,-96.1)"></path><path d="M812,774.59C812,774.59,813.81,779.36,818.8,779.71C818.983,779.723,819.166,779.73,819.349,779.732C819.533,779.733,819.716,779.729,819.899,779.719C820.082,779.709,820.264,779.693,820.446,779.671C820.628,779.65,820.81,779.623,820.99,779.59C827.66,778.43,843.29,775.74,848.8,776.77C852.12,777.38,858.25,776.47,862.62,775.65C865.52,775.1,867.62,774.59,867.62,774.59C867.62,774.59,862.5,757.59,861.85,757.03C861.2,756.47,838.79,743.03,838.79,743.03L821,741.79L821,741.79C820.412,741.881,819.833,742.027,819.273,742.227C818.712,742.428,818.172,742.681,817.66,742.983C817.147,743.285,816.664,743.636,816.218,744.03C815.772,744.424,815.364,744.859,815,745.33C813.13,747.6,811.52,751.33,811.41,757.43C811.1,772.41,812,774.59,812,774.59Z" fill="#3f3d56" transform="translate(-48.1,-96.1)"></path><path d="M812,774.59C812,774.59,813.81,779.36,818.8,779.71C818.365,779.15,817.939,778.585,817.52,778.013C817.101,777.441,816.691,776.863,816.289,776.279C815.887,775.696,815.494,775.106,815.109,774.511C814.724,773.916,814.348,773.316,813.98,772.71L814.07,760.28C813.891,758.582,813.912,756.868,814.131,755.174C814.35,753.481,814.767,751.818,815.373,750.221C815.979,748.625,816.77,747.104,817.729,745.691C818.688,744.278,819.809,742.982,821.07,741.83L821,741.83C821,741.83,811.65,742.47,811.39,757.47C811.13,772.47,812,774.59,812,774.59Z" opacity="0.05" transform="translate(-48.1,-96.1)"></path><path d="M889,747.42L905.53,734.48L931.53,708.85C931.53,708.85,928.72,708.71,924.48,708.53C923.48,709.2,920.48,711.31,920.36,713.88C920.24,717.02,913.36,714.1,909.74,715.88C906.12,717.66,888.64,740.16,885.56,740C882.48,739.84,880.05,738.44,878.77,740.62L878.68,740.76Z" opacity="0.1" transform="translate(-48.1,-96.1)"></path><path d="M815,745.32C815.59,745.6,816.19,745.88,816.79,746.14C829.35,751.52,844.86,762.8,846.01,764.85C846.72,766.1,855.71,771.56,862.65,775.65C865.55,775.1,867.65,774.59,867.65,774.59C867.65,774.59,862.53,757.59,861.88,757.03C861.23,756.47,838.82,743.03,838.82,743.03L821,741.79L821,741.79C820.412,741.88,819.834,742.026,819.274,742.225C818.713,742.425,818.173,742.677,817.661,742.978C817.148,743.28,816.665,743.63,816.219,744.023C815.772,744.415,815.364,744.85,815,745.32Z" opacity="0.1" transform="translate(-48.1,-96.1)"></path><path d="M780.09,708.59C781.76,712.69,795.73,728.45,795.73,728.45C795.73,728.45,804.57,739.99,817.13,745.37C829.69,750.75,845.19,762.03,846.35,764.08C847.09,765.4,857.1,771.43,864.15,775.57L865.73,776.49L869.23,778.49L871.08,779.56C871.08,779.56,875.37,776.11,879.65,772.64C883.93,769.17,888.06,765.78,888.13,765.64C888.25,765.26,889.92,760.9,889.53,760.64C889.33,760.51,888.45,758.73,886.84,756.64C886.411,756.071,885.949,755.527,885.457,755.011C884.964,754.496,884.442,754.01,883.893,753.556C883.343,753.101,882.768,752.68,882.169,752.293C881.571,751.906,880.95,751.554,880.31,751.24C874.41,748.55,871.85,742.42,871.85,742.42C871.85,742.42,871.29,742.02,870.44,741.48C870.004,741.179,869.555,740.898,869.094,740.639C868.632,740.379,868.158,740.142,867.675,739.926C867.191,739.711,866.698,739.518,866.196,739.348C865.694,739.179,865.185,739.032,864.67,738.91C861.85,738.56,856.6,732.79,856.6,732.79C856.6,732.79,853.01,730.48,851.6,727.54C850.19,724.6,830.38,711.08,828.54,709.81L876.72,740.76L888.25,748.17L904.79,735.23L930.79,709.6C930.79,709.6,927.29,709.43,922.21,709.21C909.56,708.66,887.11,707.8,884.27,708.44C883.698,708.574,883.121,708.684,882.54,708.771C881.959,708.857,881.375,708.92,880.789,708.958C880.203,708.997,879.616,709.011,879.028,709.001C878.441,708.992,877.854,708.958,877.27,708.9C877.27,708.9,870.87,709.19,866.64,706.96C862.41,704.73,855.74,703.68,854.97,702.03C854.2,700.38,831.52,692.42,831.52,692.42C831.52,692.42,800.64,676.02,789.61,685.76C778.58,695.5,778.43,704.49,780.09,708.59Z" fill="#65617d" transform="translate(-48.1,-96.1)"></path><path d="M879.67,614.53L883.67,627.72L888.8,657.46L907.63,658.74L913.09,649.74L918.53,640.74C918.53,640.74,921.92,628.74,924.36,617.1C926.51,606.82,927.92,596.84,925.58,595.76C923.5,594.76,922.13,591.33,921.24,587.61C921.13,587.15,921.02,586.68,920.93,586.22C920.774,585.431,920.631,584.64,920.501,583.847C920.37,583.053,920.253,582.258,920.149,581.46C920.045,580.663,919.953,579.864,919.875,579.064C919.797,578.264,919.732,577.462,919.68,576.66C919.68,576.66,880.21,574.61,885.68,590.89C885.926,591.583,886.143,592.286,886.329,592.997C886.515,593.708,886.67,594.427,886.795,595.151C886.92,595.876,887.014,596.605,887.076,597.338C887.139,598.07,887.17,598.805,887.17,599.54C887.168,599.724,887.163,599.908,887.156,600.091C887.149,600.275,887.139,600.458,887.128,600.642C887.116,600.825,887.102,601.008,887.086,601.192C887.07,601.375,887.051,601.557,887.03,601.74C886.89,602.998,886.621,604.239,886.227,605.442C885.833,606.646,885.316,607.805,884.684,608.903C884.053,610,883.31,611.03,882.468,611.975C881.625,612.921,880.688,613.777,879.67,614.53Z" fill="#ee8e9e" transform="translate(-48.1,-96.1)"></path><path d="M871.46,612.35L872.88,634.77L876.08,653.87L879.67,662.71L882.87,711.09C882.87,711.09,913.77,714.66,921.29,711.03C921.424,710.973,921.554,710.907,921.68,710.832C921.806,710.758,921.926,710.675,922.041,710.585C922.155,710.495,922.264,710.397,922.366,710.292C922.468,710.188,922.563,710.077,922.65,709.96C931.72,696.26,928.75,656.56,928.75,656.56L932.21,630.93L929.9,617.63L924.33,617.03L920.04,616.58C920.04,616.58,919.04,617.77,917.67,619.58C913.87,624.58,906.88,634.46,907.35,638.58C907.99,644.22,906.58,649.98,904.35,650.88C902.12,651.78,900.35,653.32,900,651.78C899.65,650.24,899.23,649.86,899.61,647.68C899.99,645.5,897.94,638.83,897.94,638.83C897.94,638.83,894.48,631.02,894.74,627.68C895,624.34,894.36,620.51,893.33,619.61C892.3,618.71,890.9,617.82,892.05,613.72C893.2,609.62,887,601.67,887,601.67Z" fill="#e3e8f4" transform="translate(-48.1,-96.1)"></path><path d="M912.28,668.36L913.57,706.68L920.97,710.78C921.104,710.723,921.233,710.657,921.358,710.583C921.483,710.509,921.604,710.427,921.718,710.338C921.833,710.248,921.942,710.152,922.044,710.048C922.146,709.945,922.242,709.835,922.33,709.72C931.4,696.01,928.43,656.31,928.43,656.31L931.89,630.68L929.58,617.38L924.01,616.78C926.16,606.5,927.57,596.52,925.23,595.44C923.15,594.44,921.78,591.01,920.89,587.29L920.89,587.29L916.89,614.4C916.89,614.4,917.22,616.85,917.34,619.4C917.381,619.798,917.404,620.198,917.411,620.598C917.418,620.999,917.408,621.399,917.381,621.799C917.355,622.198,917.311,622.596,917.251,622.992C917.19,623.388,917.113,623.781,917.02,624.17C916.12,626.48,916.76,630.58,916.76,630.58C914.45,634.65,913.29,642.19,912.76,649.47C912,659.13,912.28,668.36,912.28,668.36Z" opacity="0.1" transform="translate(-48.1,-96.1)"></path><path d="M921,586.68C921,586.68,927.46,587.48,929.51,590.18C931.56,592.88,936.94,593.25,936.94,593.25C936.94,593.25,943.09,595.25,942.94,595.81C942.79,596.37,944.73,597.1,948.57,598.12C952.41,599.14,958.83,602.86,958.83,603.76C958.83,604.66,969,614.65,969,615.68C969,616.71,972.08,620.55,971.69,627.34C971.3,634.13,970.92,642.72,972.46,644.13C974,645.54,972.46,651.05,972.46,651.05C972.254,651.348,972.092,651.673,971.979,652.017C971.865,652.361,971.802,652.719,971.79,653.081C971.779,653.443,971.82,653.804,971.911,654.154C972.002,654.505,972.143,654.84,972.33,655.15C973.61,657.46,972.08,667.07,972.08,667.07L972.2,677.07C972.2,677.07,970.79,683.35,972.46,683.61C974.13,683.87,972.2,686.69,972.2,686.69C972.2,686.69,970.79,691.81,972.59,694.12C974.39,696.43,974.9,706.29,974.9,706.29L1002.32,746.15C1002.32,746.15,1002.71,753.45,993.99,753.33C985.27,753.21,985.4,754.99,985.66,756.66C985.92,758.33,983.23,760.12,983.23,760.12C983.23,760.12,979.77,761.91,981.82,764.12C983.87,766.33,989.76,771.3,980.02,774.63C979.733,774.234,979.459,773.829,979.197,773.415C978.936,773.002,978.687,772.581,978.451,772.152C978.216,771.724,977.993,771.288,977.785,770.845C977.576,770.403,977.381,769.954,977.2,769.5C976.993,768.935,976.796,768.366,976.607,767.795C976.418,767.223,976.238,766.649,976.067,766.072C975.896,765.495,975.734,764.915,975.581,764.333C975.429,763.751,975.285,763.167,975.15,762.58C975.15,762.58,974.25,752.84,972.46,751.58C970.67,750.32,970.92,744.15,970.92,744.15C970.92,744.15,973.49,739.15,969.92,737.1C966.35,735.05,914.3,706.21,914.3,706.21L913,667.84C913,667.84,912.1,639.52,917.48,630.03C917.48,630.03,916.84,625.93,917.74,623.62C918.64,621.31,917.61,613.88,917.61,613.88Z" fill="#3f3d56" transform="translate(-48.1,-96.1)"></path><path d="M887.43,602.06C887.43,602.06,874.54,599.4,871.08,601.2C867.62,603,860.83,604.4,859.8,605.43C858.77,606.46,856.22,605.68,853.91,611.71C851.6,617.74,851.35,623.88,848.4,626.71C845.45,629.54,843.91,631.45,843.78,633.5C843.65,635.55,844.17,636.06,843.02,636.71C841.87,637.36,840.2,640.04,840.71,641.06C841.22,642.08,867.36,664.64,867.36,664.64C867.36,664.64,868.65,673.23,869.8,675.41C870.95,677.59,868.52,707.57,865.96,709.63C863.4,711.69,883.26,711.49,883.26,711.49C883.26,711.49,884.15,691.81,884.92,690.79C885.69,689.77,884.41,668.79,884.41,668.79C884.41,668.79,884.28,650.85,885.95,646.11C887.62,641.37,887.43,625.61,887.43,625.61C887.43,625.61,888.9,616.15,890.69,613.94C892.48,611.73,887.43,602.06,887.43,602.06Z" opacity="0.1" transform="translate(-48.1,-96.1)"></path><path d="M887,601.67C887,601.67,874.12,599.02,870.66,600.81C867.2,602.6,860.44,604,859.42,605C858.4,606,855.83,605.26,853.52,611.28C851.21,617.3,850.96,623.46,848.01,626.28C845.06,629.1,843.53,631.02,843.4,633.07C843.27,635.12,843.78,635.63,842.63,636.27C841.48,636.91,839.81,639.6,840.32,640.63C840.83,641.66,867,664.25,867,664.25C867,664.25,868.28,672.83,869.44,675.01C870.6,677.19,868.15,707.18,865.59,709.23C863.03,711.28,882.89,711.09,882.89,711.09C882.89,711.09,883.79,691.42,884.56,690.39C885.33,689.36,884.04,668.39,884.04,668.39C884.04,668.39,883.92,650.45,885.58,645.71C887.24,640.97,887,625.16,887,625.16C887,625.16,888.47,615.7,890.26,613.5C892.05,611.3,887,601.67,887,601.67Z" fill="#3f3d56" transform="translate(-48.1,-96.1)"></path><path d="M885.69,590.82C885.936,591.513,886.153,592.216,886.339,592.927C886.525,593.638,886.68,594.357,886.805,595.081C886.93,595.806,887.024,596.535,887.086,597.268C887.149,598,887.18,598.735,887.18,599.47C890.308,600.401,893.57,600.804,896.831,600.662C900.092,600.52,903.306,599.836,906.342,598.637C909.377,597.437,912.192,595.74,914.669,593.616C917.147,591.491,919.252,588.968,920.9,586.15C920.744,585.361,920.601,584.57,920.471,583.777C920.34,582.983,920.223,582.188,920.119,581.39C920.015,580.593,919.923,579.794,919.845,578.994C919.767,578.194,919.702,577.392,919.65,576.59C919.65,576.59,880.18,574.54,885.69,590.82Z" opacity="0.1" transform="translate(-48.1,-96.1)"></path><g transform="translate(869.084,494.663) translate(-57.5765,-65.2178)" style="animation: 3s linear infinite both a7_t;"><path d="M866.21,570.57C866.212,586.183,878.437,599.061,894.029,599.876C909.62,600.69,923.121,589.156,924.75,573.628C926.379,558.101,915.567,544.015,900.145,541.576C884.724,539.137,870.093,549.198,866.85,564.47C866.744,564.971,866.65,565.475,866.57,565.98C866.49,566.486,866.424,566.994,866.37,567.503C866.317,568.013,866.277,568.523,866.25,569.035C866.223,569.546,866.21,570.058,866.21,570.57Z" fill="#ee8e9e" transform="translate(-859.607,-525.545)"></path><path d="M866.85,564.47C867.051,564.486,867.251,564.52,867.446,564.572C867.641,564.623,867.832,564.692,868.015,564.777C868.198,564.862,868.373,564.964,868.538,565.08C868.703,565.196,868.858,565.326,869,565.47C870,566.52,870,568.38,871.33,569.02C871.449,569.073,871.572,569.117,871.698,569.152C871.824,569.187,871.952,569.212,872.081,569.227C872.211,569.242,872.341,569.247,872.472,569.243C872.602,569.239,872.732,569.224,872.86,569.2C876.27,568.72,878.24,564.87,881.51,563.81C881.984,563.689,882.466,563.607,882.954,563.567C883.441,563.527,883.931,563.528,884.418,563.571C884.905,563.613,885.387,563.697,885.86,563.821C886.333,563.945,886.795,564.108,887.24,564.31C887.422,564.365,887.6,564.433,887.773,564.512C887.946,564.591,888.113,564.682,888.273,564.785C888.433,564.887,888.587,565,888.732,565.123C888.877,565.246,889.013,565.378,889.14,565.52C890.24,566.94,889.47,569.03,889.98,570.74C890.68,573.12,893.52,574.07,895.98,574.38C898.44,574.69,901.21,574.86,902.86,576.72C903.132,577.069,903.366,577.446,903.559,577.844C903.752,578.242,903.902,578.659,904.007,579.089C904.112,579.519,904.171,579.958,904.183,580.401C904.195,580.843,904.161,581.285,904.08,581.72C904.044,581.87,904.017,582.021,903.999,582.174C903.981,582.327,903.971,582.481,903.971,582.635C903.971,582.789,903.981,582.943,903.999,583.096C904.017,583.249,904.044,583.4,904.08,583.55C904.76,585.48,908.08,585.19,908.95,583.67C909.59,582.57,909.4,581.67,910.89,581.35C911.158,581.327,911.426,581.322,911.694,581.333C911.963,581.345,912.23,581.373,912.495,581.419C912.759,581.464,913.021,581.527,913.277,581.605C913.534,581.684,913.785,581.779,914.03,581.89C914.68,582.113,915.34,582.307,916.008,582.471C916.675,582.635,917.35,582.769,918.029,582.873C918.709,582.977,919.393,583.051,920.079,583.093C920.765,583.136,921.453,583.149,922.14,583.13C925.704,575.554,925.863,566.816,922.576,559.115C919.29,551.414,912.871,545.484,904.934,542.816C896.998,540.148,888.3,540.997,881.029,545.148C873.758,549.3,868.606,556.359,866.87,564.55Z" opacity="0.1" transform="translate(-859.607,-525.545)"></path><path d="M904.06,582.71C904.024,582.559,903.998,582.407,903.98,582.253C903.962,582.099,903.953,581.945,903.953,581.79C903.953,581.635,903.962,581.481,903.98,581.327C903.998,581.173,904.024,581.021,904.06,580.87C904.141,580.435,904.175,579.993,904.163,579.551C904.151,579.108,904.092,578.669,903.987,578.239C903.882,577.809,903.732,577.392,903.539,576.994C903.346,576.596,903.112,576.219,902.84,575.87C901.19,574.01,898.42,573.87,895.96,573.53C893.5,573.19,890.66,572.27,889.96,569.89C889.45,568.18,890.22,566.09,889.12,564.68C888.994,564.537,888.858,564.403,888.713,564.279C888.568,564.155,888.415,564.041,888.255,563.938C888.094,563.835,887.927,563.743,887.754,563.663C887.581,563.583,887.402,563.515,887.22,563.46C886.775,563.258,886.313,563.095,885.84,562.971C885.367,562.847,884.885,562.763,884.398,562.721C883.911,562.678,883.421,562.677,882.934,562.717C882.446,562.757,881.964,562.839,881.49,562.96C878.22,564.02,876.25,567.87,872.84,568.35C872.712,568.374,872.582,568.389,872.452,568.393C872.321,568.397,872.191,568.392,872.061,568.377C871.932,568.362,871.804,568.337,871.678,568.302C871.552,568.267,871.429,568.223,871.31,568.17C870.02,567.53,869.97,565.67,868.98,564.62C867.42,562.97,864.47,564.04,862.56,562.81C861.32,562.01,860.84,560.45,860.49,559.02C859.82,556.23,859.27,553.31,859.93,550.52C861.04,545.75,865.3,542.52,868.02,538.41C870.56,534.62,872.02,529.82,875.79,527.3C879.56,524.78,884.49,525.36,888.79,526.64C889.285,526.814,889.784,526.979,890.286,527.132C890.789,527.286,891.294,527.429,891.802,527.562C892.31,527.694,892.821,527.816,893.334,527.928C893.847,528.039,894.363,528.14,894.88,528.23C898.34,528.66,901.82,527.72,905.31,527.6C906.531,527.562,907.753,527.623,908.964,527.783C910.174,527.944,911.37,528.203,912.539,528.557C913.708,528.912,914.845,529.362,915.941,529.901C917.037,530.441,918.087,531.07,919.08,531.78C919.305,531.928,919.522,532.087,919.73,532.257C919.938,532.428,920.137,532.609,920.326,532.801C920.515,532.992,920.693,533.194,920.861,533.404C921.029,533.614,921.185,533.833,921.33,534.06C921.475,534.381,921.605,534.708,921.72,535.041C921.835,535.374,921.934,535.712,922.018,536.054C922.102,536.396,922.17,536.742,922.222,537.09C922.274,537.438,922.31,537.788,922.33,538.14C922.433,538.801,922.567,539.456,922.733,540.104C922.898,540.752,923.095,541.392,923.323,542.021C923.55,542.65,923.807,543.268,924.094,543.872C924.381,544.476,924.696,545.066,925.04,545.64C926.11,547.44,927.47,549.07,928.44,550.94C928.708,551.391,928.931,551.868,929.108,552.362C929.284,552.856,929.412,553.366,929.491,553.885C929.57,554.404,929.598,554.93,929.576,555.454C929.554,555.978,929.482,556.499,929.36,557.01C929.03,558.06,928.36,559.01,928.13,560.1C927.56,562.6,929.21,564.99,930.34,567.3C930.611,567.824,930.847,568.365,931.047,568.919C931.248,569.474,931.412,570.041,931.538,570.617C931.665,571.192,931.753,571.776,931.804,572.363C931.854,572.951,931.866,573.541,931.84,574.13C931.808,574.718,931.715,575.302,931.564,575.872C931.413,576.441,931.203,576.994,930.939,577.52C930.675,578.047,930.357,578.545,929.991,579.007C929.625,579.469,929.212,579.892,928.76,580.27C928.289,580.601,927.793,580.895,927.276,581.148C926.759,581.401,926.223,581.614,925.673,581.783C925.123,581.953,924.561,582.079,923.991,582.16C923.421,582.242,922.846,582.279,922.27,582.27C921.569,582.291,920.867,582.281,920.168,582.238C919.468,582.195,918.77,582.121,918.077,582.014C917.384,581.908,916.696,581.77,916.015,581.6C915.335,581.431,914.662,581.231,914,581C913.755,580.889,913.504,580.794,913.247,580.715C912.991,580.637,912.729,580.574,912.465,580.529C912.2,580.483,911.933,580.455,911.664,580.443C911.396,580.432,911.128,580.437,910.86,580.46C909.37,580.76,909.56,581.68,908.92,582.78C908.06,584.34,904.74,584.63,904.06,582.71Z" fill="#3f3d56" transform="translate(-859.607,-525.545)"></path><path d="M859.9,550.56C859.958,550.335,860.022,550.113,860.093,549.892C860.164,549.671,860.241,549.452,860.325,549.236C860.408,549.02,860.498,548.806,860.594,548.595C860.69,548.384,860.792,548.175,860.9,547.97C860.83,548.19,860.77,548.41,860.71,548.64C860.06,551.43,860.6,554.35,861.28,557.13C861.63,558.57,862.11,560.13,863.35,560.93C865.26,562.15,868.21,561.09,869.77,562.74C870.77,563.74,870.77,565.65,872.1,566.29C872.219,566.343,872.342,566.387,872.468,566.422C872.594,566.457,872.722,566.482,872.851,566.497C872.981,566.512,873.111,566.517,873.242,566.513C873.372,566.509,873.502,566.494,873.63,566.47C877.03,565.99,879.01,562.14,882.28,561.08C882.754,560.959,883.236,560.877,883.724,560.837C884.211,560.797,884.701,560.798,885.188,560.841C885.675,560.883,886.157,560.967,886.63,561.091C887.103,561.215,887.565,561.378,888.01,561.58C888.192,561.636,888.371,561.704,888.544,561.784C888.716,561.864,888.884,561.956,889.044,562.059C889.205,562.162,889.358,562.276,889.503,562.4C889.647,562.524,889.783,562.657,889.91,562.8C891,564.21,890.24,566.3,890.74,568.01C891.45,570.39,894.29,571.33,896.74,571.65C899.19,571.97,901.97,572.13,903.62,573.99C903.892,574.339,904.126,574.716,904.319,575.114C904.512,575.512,904.662,575.929,904.767,576.359C904.872,576.789,904.931,577.228,904.943,577.671C904.955,578.113,904.921,578.555,904.84,578.99C904.803,579.139,904.775,579.291,904.756,579.444C904.737,579.597,904.728,579.751,904.728,579.905C904.728,580.059,904.737,580.213,904.756,580.366C904.775,580.519,904.803,580.671,904.84,580.82C905.52,582.74,908.84,582.46,909.71,580.94C910.35,579.84,910.15,578.94,911.65,578.61C911.918,578.589,912.187,578.586,912.455,578.599C912.723,578.612,912.99,578.641,913.255,578.688C913.519,578.734,913.78,578.797,914.037,578.876C914.294,578.955,914.545,579.05,914.79,579.16C915.454,579.387,916.128,579.584,916.809,579.75C917.491,579.916,918.18,580.052,918.874,580.156C919.568,580.26,920.266,580.332,920.966,580.373C921.667,580.414,922.369,580.423,923.07,580.4C923.646,580.409,924.221,580.372,924.791,580.29C925.361,580.209,925.923,580.083,926.473,579.913C927.023,579.744,927.559,579.531,928.076,579.278C928.593,579.025,929.089,578.731,929.56,578.4C929.767,578.236,929.964,578.062,930.153,577.877C930.341,577.693,930.519,577.498,930.687,577.295C930.855,577.092,931.012,576.88,931.158,576.661C931.304,576.441,931.438,576.214,931.56,575.98C931.452,576.403,931.311,576.817,931.138,577.218C930.964,577.618,930.759,578.005,930.524,578.373C930.289,578.741,930.025,579.09,929.735,579.416C929.444,579.742,929.128,580.044,928.79,580.32C928.319,580.651,927.823,580.945,927.306,581.198C926.789,581.451,926.253,581.664,925.703,581.833C925.153,582.003,924.591,582.129,924.021,582.21C923.451,582.292,922.876,582.329,922.3,582.32C921.596,582.338,920.891,582.324,920.188,582.278C919.485,582.232,918.785,582.153,918.089,582.042C917.394,581.932,916.703,581.789,916.021,581.615C915.338,581.441,914.664,581.236,914,581C913.755,580.889,913.504,580.794,913.247,580.715C912.991,580.637,912.729,580.574,912.465,580.529C912.2,580.483,911.933,580.455,911.664,580.443C911.396,580.432,911.128,580.437,910.86,580.46C909.37,580.76,909.56,581.68,908.92,582.78C908.05,584.3,904.73,584.59,904.05,582.67C904.014,582.519,903.988,582.367,903.97,582.213C903.952,582.059,903.943,581.905,903.943,581.75C903.943,581.595,903.952,581.441,903.97,581.287C903.988,581.133,904.014,580.981,904.05,580.83C904.131,580.395,904.165,579.953,904.153,579.511C904.141,579.068,904.082,578.629,903.977,578.199C903.872,577.769,903.722,577.352,903.529,576.954C903.336,576.556,903.102,576.179,902.83,575.83C901.18,573.97,898.41,573.83,895.95,573.49C893.49,573.15,890.65,572.23,889.95,569.85C889.44,568.14,890.21,566.05,889.11,564.64C888.983,564.498,888.847,564.364,888.702,564.24C888.557,564.116,888.404,564.003,888.244,563.9C888.083,563.797,887.916,563.705,887.743,563.624C887.57,563.544,887.392,563.476,887.21,563.42C886.765,563.218,886.303,563.055,885.83,562.931C885.357,562.807,884.875,562.723,884.388,562.681C883.901,562.638,883.411,562.637,882.924,562.677C882.436,562.717,881.954,562.799,881.48,562.92C878.21,563.98,876.23,567.83,872.83,568.31C872.702,568.334,872.572,568.349,872.442,568.353C872.311,568.357,872.181,568.352,872.051,568.337C871.922,568.322,871.794,568.297,871.668,568.262C871.542,568.227,871.419,568.183,871.3,568.13C870.01,567.49,869.96,565.63,868.97,564.58C867.41,562.93,864.46,564,862.55,562.77C861.31,561.97,860.83,560.41,860.48,558.98C859.79,556.27,859.25,553.35,859.9,550.56Z" transform="translate(-859.607,-525.545)"></path></g><path d="M847.37,638.49L840.37,640.67C840.37,640.67,841.02,643.23,838.96,644.51C838.658,644.725,838.385,644.978,838.148,645.263C837.911,645.548,837.712,645.862,837.555,646.198C837.399,646.534,837.287,646.889,837.222,647.254C837.157,647.619,837.139,647.991,837.17,648.36C837.17,648.36,836.4,651.18,834.61,651.82C832.82,652.46,831.66,656.69,831.66,656.69L825.76,663.48C825.76,663.48,823.59,665.27,823.97,666.17C824.35,667.07,821.66,667.32,821.66,667.32L823,690.14L835.18,692.44L842.74,691.67L848.89,689.37L854.27,686.16L856.71,679.88L867.47,663.48Z" fill="#3f3d56" transform="translate(-48.1,-96.1)"></path><path d="M823.41,669.12C823.41,669.12,807.77,646.56,796.11,658.74C784.45,670.92,800.85,690.65,804.7,690.01C808.55,689.37,826.87,688.34,826.87,688.34Z" fill="#ee8e9e" transform="translate(-48.1,-96.1)"></path><ellipse fill="#e6e8ec" rx="1.86" ry="1.86" transform="translate(0,0) translate(796.61,590.97)"></ellipse><path d="M888.25,748.19L904.79,735.25L930.79,709.62C930.79,709.62,927.29,709.45,922.21,709.23C921.96,709.455,921.731,709.702,921.526,709.968C921.32,710.233,921.138,710.517,920.983,710.815C920.828,711.114,920.7,711.425,920.601,711.746C920.501,712.067,920.431,712.396,920.39,712.73C920.27,715.86,913.39,712.95,909.77,714.73C906.15,716.51,888.64,739,885.56,738.86C882.48,738.72,880.05,737.3,878.77,739.48L878.68,739.62C878.55,739.767,878.408,739.903,878.256,740.027C878.105,740.151,877.943,740.263,877.773,740.361C877.604,740.46,877.427,740.544,877.243,740.614C877.06,740.684,876.872,740.74,876.68,740.78Z" opacity="0.1" transform="translate(-48.1,-96.1)"></path><path d="M854.93,747.29L863.24,773.81L864.54,777.97L868.54,776.89L877.26,774.49L916.1,763.82C917.316,763.767,918.528,763.649,919.732,763.465C920.935,763.281,922.127,763.031,923.303,762.718C924.479,762.405,925.638,762.028,926.773,761.589C927.908,761.15,929.019,760.649,930.1,760.09C931.924,759.07,933.821,758.186,935.776,757.445C937.73,756.705,939.737,756.109,941.779,755.664C943.821,755.22,945.893,754.926,947.979,754.786C950.064,754.647,952.157,754.661,954.24,754.83C959.37,755.31,965.08,753.1,969.82,744.34C969.82,744.34,980.58,712.56,953.41,703.46C926.24,694.36,924.95,708.3,924.95,708.3L924.58,708.53C923.58,709.2,920.58,711.31,920.46,713.88C920.34,717.02,913.46,714.1,909.84,715.88C906.22,717.66,888.64,740.16,885.56,740C882.48,739.84,880.05,738.44,878.77,740.62L878.68,740.76C877.73,742.07,874.87,742.37,872.99,742.43C871.99,742.43,871.21,742.43,871.21,742.43L870.97,742.5L868.97,743.09Z" fill="#65617d" transform="translate(-48.1,-96.1)"></path><path d="M857.08,695.78L861.08,696.42L862.75,679.88C862.75,679.88,860.92,679.61,858.63,679.08C859.23,681.38,857.86,690.3,857.08,695.78Z" opacity="0.1" transform="translate(-48.1,-96.1)"></path><path d="M869,743.08L885.92,763.56C885.99,763.5,886.03,763.46,886.03,763.44C886.16,763.06,887.82,758.7,887.44,758.44C887.06,758.18,884.11,751.77,878.21,749.08C877.467,748.716,876.75,748.3,876.065,747.834C875.381,747.369,874.73,746.855,874.118,746.297C873.507,745.74,872.935,745.139,872.409,744.501C871.882,743.862,871.401,743.187,870.97,742.48Z" opacity="0.1" transform="translate(-48.1,-96.1)"></path><path d="M869.23,778.52L871.08,779.59C871.08,779.59,875.37,776.14,879.65,772.67C883.93,769.2,888.06,765.81,888.13,765.67C888.25,765.29,889.92,760.93,889.53,760.67C889.33,760.54,888.45,758.76,886.84,756.67C875.36,753.45,882.67,761.42,883.64,761.78C883.64,761.78,869.64,758.58,868.9,773.78C868.875,774.176,868.863,774.573,868.865,774.971C868.866,775.368,868.88,775.765,868.908,776.161C868.935,776.557,868.976,776.952,869.03,777.346C869.084,777.739,869.15,778.131,869.23,778.52Z" opacity="0.1" transform="translate(-48.1,-96.1)"></path><path d="M883.38,785L885.82,786.41L910.55,787.05C911.244,787.471,911.947,787.875,912.661,788.261C913.374,788.648,914.096,789.017,914.827,789.368C915.559,789.72,916.298,790.053,917.046,790.369C917.793,790.684,918.548,790.981,919.31,791.26C919.411,791.292,919.513,791.322,919.615,791.349C919.718,791.377,919.821,791.402,919.924,791.426C920.028,791.449,920.132,791.47,920.236,791.489C920.34,791.508,920.445,791.525,920.55,791.54C921.123,791.585,921.696,791.621,922.27,791.649C922.844,791.676,923.419,791.696,923.993,791.706C924.568,791.717,925.142,791.72,925.717,791.714C926.291,791.708,926.866,791.693,927.44,791.67C929.34,791.67,930.8,791.54,930.8,791.54C930.8,791.54,929.63,760.34,928.8,757.06C928.38,755.49,926.3,755.84,924.26,756.62C923.876,756.776,923.496,756.939,923.119,757.111C922.742,757.282,922.368,757.461,921.999,757.648C921.629,757.835,921.263,758.03,920.902,758.232C920.54,758.434,920.183,758.643,919.83,758.86C919.83,758.86,909.32,759.86,907.65,760.79C905.98,761.72,901.25,760.27,898.3,760.79C895.35,761.31,890.1,757.32,890.1,757.32C875.74,752.58,883.82,761.42,884.84,761.8C884.84,761.8,870.84,758.6,870.11,773.8C869.38,789,883.38,785,883.38,785Z" fill="#3f3d56" transform="translate(-48.1,-96.1)"></path><path d="M919.14,772.92C919.41,779.38,924.44,787.4,927.44,791.64C929.34,791.64,930.8,791.51,930.8,791.51C930.8,791.51,929.63,760.31,928.8,757.03C928.38,755.46,926.3,755.81,924.26,756.59C921.73,761.24,918.92,767.72,919.14,772.92Z" fill="#565387" transform="translate(-48.1,-96.1)"></path><path d="M919.14,772.92C919.41,779.38,924.44,787.4,927.44,791.64C929.34,791.64,930.8,791.51,930.8,791.51C930.8,791.51,929.63,760.31,928.8,757.03C928.38,755.46,926.3,755.81,924.26,756.59C921.73,761.24,918.92,767.72,919.14,772.92Z" opacity="0.1" transform="translate(-48.1,-96.1)"></path><path d="M914.91,773.78C916.61,780.01,916.59,787,919.31,791.23C919.411,791.262,919.513,791.292,919.615,791.319C919.718,791.347,919.821,791.372,919.924,791.396C920.028,791.419,920.132,791.44,920.236,791.459C920.34,791.478,920.445,791.495,920.55,791.51C921.123,791.555,921.696,791.591,922.27,791.619C922.844,791.646,923.419,791.666,923.993,791.676C924.568,791.687,925.142,791.69,925.717,791.684C926.291,791.678,926.866,791.663,927.44,791.64C929.34,791.64,930.8,791.51,930.8,791.51C930.8,791.51,929.63,760.31,928.8,757.03C928.38,755.46,926.3,755.81,924.26,756.59C923.876,756.746,923.496,756.909,923.119,757.081C922.742,757.252,922.368,757.431,921.999,757.618C921.629,757.805,921.263,758,920.902,758.202C920.54,758.404,920.183,758.613,919.83,758.83C919.83,758.83,912.73,765.8,914.91,773.78Z" opacity="0.05" transform="translate(-48.1,-96.1)"></path><path d="M829.58,710.55C829.58,710.55,841.87,714.55,852.28,728.71Z" opacity="0.1" transform="translate(-48.1,-96.1)"></path><g opacity="0.1"><path d="M929.41,556.77C929.41,556.87,929.41,556.96,929.34,557.05C929.309,557.141,929.277,557.232,929.243,557.322C929.21,557.412,929.175,557.502,929.139,557.591C929.103,557.68,929.066,557.769,929.028,557.857C928.99,557.945,928.951,558.033,928.91,558.12C928.942,558.004,928.976,557.889,929.012,557.774C929.049,557.66,929.088,557.547,929.13,557.434C929.172,557.321,929.216,557.21,929.263,557.099C929.309,556.988,929.358,556.878,929.41,556.77Z" transform="translate(-48.1,-96.1)"></path></g><g transform="translate(912.567,545.031) translate(-199.775,-25.5955)" style="animation: 3s linear infinite both a8_t;"><g transform="translate(49.8227,53.9952) translate(-50.3542,-46.3662)"><rect width="81.83" height="63.54" rx="1.54" fill="#3f3d56" transform="translate(-367.14,-918.725) rotate(27.04) translate(770.4,638.26)"></rect><rect width="68.78" height="51.83" fill="#40c2c6" transform="translate(-367.17,-918.785) rotate(27.04) translate(777.03,644.03)"></rect><ellipse fill="#e6e8ec" rx="1.13" ry="1.13" transform="translate(-712.26,-527.065) translate(730.3,557)"></ellipse></g><path d="M813.28,673.86C813.16,690.78,848.14,694.36,848.14,694.36L857.08,695.78L861.08,696.42L862.75,679.88C862.75,679.88,860.92,679.61,858.63,679.08C855.24,678.29,850.85,676.92,849.93,675.01C848.4,671.81,813.41,656.94,813.28,673.86Z" fill="#ee8e9e" transform="translate(-760.892,-615.536)"></path><path d="M961.87,618.53C961.87,618.53,973.79,615.07,970.87,648.91C967.95,682.75,945.87,704.14,945.87,704.14C945.87,704.14,920.5,715.29,909.09,713.5C907.456,713.236,905.819,712.993,904.18,712.77C902.54,712.547,900.897,712.345,899.252,712.163C897.607,711.981,895.96,711.82,894.311,711.68C892.663,711.539,891.012,711.419,889.36,711.32C888.465,710.867,887.548,710.462,886.611,710.104C885.674,709.747,884.719,709.438,883.75,709.179C882.781,708.921,881.8,708.713,880.81,708.556C879.819,708.399,878.821,708.294,877.82,708.24C871.42,707.99,857.96,704.01,857.7,702.73C857.44,701.45,861.04,682.61,859.5,681.2C859.5,681.2,877.44,681.94,879.23,683.2C881.02,684.46,883.59,683.57,885.51,683.2C887.43,682.83,893.33,677.71,904.99,682.2C904.99,682.2,908.99,682.58,910.5,681.56C912.01,680.54,914.5,681.3,914.5,681.3C914.747,681.215,914.991,681.121,915.232,681.02C915.473,680.918,915.71,680.808,915.943,680.69C916.176,680.572,916.406,680.447,916.63,680.313C916.855,680.18,917.075,680.039,917.29,679.89C917.67,679.38,920.75,679.89,920.75,679.89C920.933,679.98,921.133,680.027,921.337,680.029C921.54,680.03,921.741,679.987,921.926,679.9C922.11,679.814,922.272,679.687,922.401,679.53C922.53,679.372,922.622,679.188,922.67,678.99C922.77,678.728,922.883,678.471,923.008,678.221C923.134,677.97,923.272,677.726,923.422,677.489C923.573,677.253,923.735,677.024,923.908,676.804C924.081,676.583,924.265,676.372,924.46,676.17C924.46,676.17,927.92,656.69,934.46,649.39C934.46,649.39,936.38,647.72,935.87,645.67C935.36,643.62,946.49,614.43,961.87,618.53Z" opacity="0.1" transform="translate(-760.892,-615.536)"></path><path d="M961.56,615.93C961.56,615.93,973.48,612.47,970.56,646.31C967.64,680.15,945.56,701.54,945.56,701.54C945.56,701.54,920.18,712.69,908.78,710.9C897.38,709.11,889,708.72,889,708.72C888.106,708.268,887.189,707.862,886.253,707.505C885.317,707.148,884.363,706.839,883.395,706.58C882.427,706.322,881.446,706.114,880.457,705.957C879.467,705.8,878.47,705.694,877.47,705.64C871.06,705.39,857.61,701.41,857.35,700.13C857.09,698.85,860.68,680.01,859.14,678.6C859.14,678.6,877.08,679.34,878.88,680.6C880.68,681.86,883.24,680.96,885.16,680.6C887.08,680.24,892.98,675.1,904.64,679.6C904.64,679.6,908.64,679.98,910.15,678.96C911.66,677.94,914.15,678.7,914.15,678.7C914.396,678.615,914.64,678.522,914.88,678.421C915.12,678.319,915.356,678.209,915.589,678.091C915.821,677.974,916.05,677.848,916.273,677.714C916.497,677.58,916.716,677.439,916.93,677.29C917.31,676.78,920.39,677.29,920.39,677.29C920.573,677.38,920.773,677.427,920.977,677.429C921.18,677.43,921.381,677.387,921.566,677.3C921.75,677.214,921.912,677.087,922.041,676.93C922.17,676.772,922.262,676.588,922.31,676.39C922.412,676.129,922.527,675.872,922.654,675.622C922.781,675.372,922.92,675.128,923.071,674.892C923.222,674.655,923.385,674.426,923.558,674.205C923.732,673.985,923.916,673.773,924.11,673.57C924.11,673.57,927.57,654.09,934.11,646.79C934.11,646.79,936.04,645.12,935.52,643.07C935,641.02,946.18,611.83,961.56,615.93Z" fill="#3f3d56" transform="translate(-760.892,-615.536)"></path><path d="M931.4,653.13C929.05,656.3,926.4,659.23,924.29,662.58C922.18,665.93,920.75,669.85,921.18,673.77C923.33,671.57,924.31,668.52,925.67,665.77C927.96,661.09,931.39,657.12,934.29,652.77C934.84,651.95,938.38,647.2,936.59,646.97C935.11,646.8,932.2,652.05,931.4,653.13Z" opacity="0.1" transform="translate(-760.892,-615.536)"></path></g><path d="M0,0L-73.8865,87.7682" stroke="#3f3d56" fill="none" stroke-miterlimit="10" stroke-dasharray="5" stroke-dashoffset="0" transform="translate(633.633,203.748)" style="animation: 3s linear infinite both a9_do;"></path><path d="M0,0L64.4828,88.6638" stroke="#3f3d56" fill="none" stroke-miterlimit="10" stroke-dasharray="5" stroke-dashoffset="0" transform="translate(492.129,203.748)" style="animation: 3s linear infinite both a10_do;"></path></svg> 